<?xml version="1.0" encoding="utf-8"?>
<svg x="0" y="0" version="1.1" style="display: block;margin-left: auto;margin-right: auto;" viewBox="1068.436 517.179 781.42 538.787" xmlns="http://www.w3.org/2000/svg">
  <defs>
    <style type="text/css">

.g1_1{
fill: #724640;
}
.g2_1{
fill: #87AF4A;
}


</style>
  </defs>
  <g transform="matrix(0.396913, 0, 0, 0.396913, 876.993896, 459.138977)">
    <path d="M 608.5 1174.7 L 707.8 1066.1 L 612.3 1065.6 L 612.5 1021.7 L 775.5 1022.6 L 775.3 1060.7 L 675.5 1169.3 L 774.7 1169.9 L 774.4 1213.7 L 608.3 1212.8 Z" class="g1_1"/>
    <path d="M 936.2 1104.1 C 933.1 1079.8 919 1063.3 896.1 1063.2 C 873.7 1063.1 859 1079 854.6 1103.6 Z M 801.3 1119.4 L 801.3 1118.7 C 801.6 1064.1 840.7 1019.4 896.4 1019.7 C 960.2 1020 989.2 1069.8 988.9 1124 C 988.9 1128.2 988.5 1133.2 988.1 1138.2 L 855.1 1137.5 C 860.3 1162.1 877.3 1175.1 901.6 1175.2 C 919.8 1175.3 933 1169.7 948.1 1155.8 L 978.9 1183.5 C 961 1205.5 935.2 1218.9 900.6 1218.7 C 843.2 1218.4 801 1177.8 801.3 1119.4 Z" class="g1_1"/>
    <path d="M 1029.7 1024 L 1083.9 1024.3 L 1083.8 1051.4 C 1096.3 1035.4 1112.8 1020.9 1140.3 1021 C 1165.2 1021.1 1184.1 1032.3 1194 1051.6 C 1210.8 1032.1 1230.8 1021.5 1256.9 1021.6 C 1297.2 1021.9 1321.3 1046.2 1321 1092.2 L 1320.4 1216.7 L 1266.2 1216.4 L 1266.7 1109.8 C 1266.9 1084.1 1255.5 1070.8 1235.2 1070.7 C 1214.9 1070.6 1202.3 1083.7 1202.2 1109.4 L 1201.6 1216 L 1147.4 1215.7 L 1148 1109.1 C 1148.1 1083.5 1136.8 1070.2 1116.5 1070.1 C 1096.1 1070 1083.6 1083.1 1083.5 1108.8 L 1082.9 1215.4 L 1028.7 1215.1 Z" class="g1_1"/>
    <path d="M 1493.6 1107.1 C 1490.5 1082.8 1476.3 1066.3 1453.5 1066.2 C 1431 1066.1 1416.3 1082.1 1411.9 1106.6 Z M 1358.7 1122.4 L 1358.7 1121.7 C 1359 1067.1 1398.1 1022.4 1453.7 1022.7 C 1517.5 1023.1 1546.5 1072.8 1546.2 1127 C 1546.2 1131.3 1545.8 1136.3 1545.4 1141.2 L 1412.4 1140.5 C 1417.6 1165.2 1434.7 1178.1 1458.9 1178.2 C 1477.1 1178.3 1490.3 1172.7 1505.4 1158.9 L 1536.3 1186.5 C 1518.3 1208.5 1492.6 1221.9 1458 1221.7 C 1400.6 1221.4 1358.4 1180.9 1358.7 1122.4 Z" class="g1_1"/>
    <path d="M 1384.5 939.4 L 1426.2 939.7 L 1454.3 963.3 L 1482.6 940 L 1523.6 940.2 L 1479.4 995.9 L 1428.1 995.7 Z" class="g1_1"/>
    <path d="M 1587.3 982.8 C 1587.4 967.8 1599.6 955.8 1614.5 955.8 C 1629.5 955.9 1641.6 968.1 1641.5 983.1 L 1640.9 1101.5 L 1709 1037.6 C 1716.8 1030.2 1723.3 1025.6 1732.9 1025.7 C 1747.5 1025.7 1756.7 1037.6 1756.7 1050 C 1756.6 1059.3 1751.6 1066.4 1744.1 1073.5 L 1701.1 1110 L 1751.7 1179.1 C 1756.3 1185.5 1758.4 1190.5 1758.4 1196.6 C 1758.3 1211.2 1746.5 1221.1 1732.9 1221.1 C 1722.2 1221 1715.8 1217.4 1709.5 1208.5 L 1662.4 1142.9 L 1640.5 1162.4 L 1640.4 1193.5 C 1640.3 1208.4 1628.1 1220.5 1613.1 1220.4 C 1598.1 1220.3 1586.1 1208.1 1586.2 1193.2 Z" class="g2_1"/>
    <path d="M 1874.1 1223.6 L 1871.3 1223.6 C 1856.6 1223.5 1846.7 1214.2 1840.7 1199.9 L 1783 1064.4 C 1781.6 1060.9 1780.2 1056.2 1780.2 1051.2 C 1780.3 1038.4 1792.1 1026 1806.7 1026.1 C 1821.3 1026.1 1829.1 1034.4 1833 1045.5 L 1873.4 1156.6 L 1915.7 1045.2 C 1919.4 1035.9 1926.9 1026.7 1941.2 1026.8 C 1955.4 1026.9 1967.1 1038 1967.1 1052.6 C 1967 1057.2 1965.2 1062.9 1964.1 1065.4 L 1904.9 1200.3 C 1898.8 1214.1 1888.7 1223.7 1874.1 1223.6 Z" class="g2_1"/>
    <path d="M 2121.5 1110.5 C 2118.4 1086.2 2104.2 1069.8 2081.4 1069.6 C 2059 1069.5 2044.3 1085.5 2039.8 1110.1 Z M 2085.9 1225.1 C 2028.5 1224.8 1986.3 1184.3 1986.6 1125.8 L 1986.6 1125.1 C 1986.9 1070.5 2026 1025.8 2081.7 1026.1 C 2145.5 1026.5 2173.4 1079 2173.2 1118.6 C 2173.1 1134.3 2162 1144.6 2147.7 1144.5 L 2040.4 1143.9 C 2045.6 1168.6 2062.6 1181.5 2086.9 1181.6 C 2101.9 1181.7 2114.4 1177.1 2125.5 1169 C 2129.4 1166.2 2133 1164.8 2138.7 1164.8 C 2150.8 1164.9 2159.7 1174.2 2159.6 1186.3 C 2159.6 1193.4 2156.3 1198.8 2152.4 1202.3 C 2135.5 1216.5 2113.7 1225.3 2085.9 1225.1 Z" class="g2_1"/>
    <path d="M 2223.2 1167.4 L 2223.7 1076.8 L 2221.9 1076.8 C 2209.1 1076.7 2198.8 1066.3 2198.8 1053.5 C 2198.9 1040.7 2209.3 1030.4 2222.1 1030.5 L 2223.9 1030.5 L 2224.1 1006.6 C 2224.1 991.6 2236.3 979.5 2251.3 979.6 C 2266.3 979.7 2278.3 991.9 2278.3 1006.9 L 2278.1 1030.8 L 2302 1030.9 C 2314.9 1031 2325.1 1041.4 2325.1 1054.2 C 2325 1067 2314.6 1077.3 2301.8 1077.2 L 2277.9 1077.1 L 2277.4 1158.8 C 2277.4 1171.3 2282.7 1177.3 2294.8 1177.4 C 2296.6 1177.4 2300.2 1177.1 2301.2 1177.1 C 2313.3 1177.2 2323.6 1187.2 2323.6 1199.7 C 2323.5 1209.3 2317 1217.1 2309.5 1219.9 C 2299.5 1223.8 2290.3 1225.2 2278.5 1225.1 C 2245.3 1224.9 2222.9 1211.6 2223.2 1167.4 Z" class="g2_1"/>
    <path d="M 2095.8 952.9 C 2107.6 943.4 2116.5 941.3 2128.6 941.3 C 2135.4 941.4 2140.4 944.3 2140.4 950 C 2140.3 953.2 2137.5 957.1 2135 960.3 L 2112.3 989 C 2106.2 996.5 2099.4 1001.1 2087 1001 L 2069.8 1000.9 C 2057.4 1000.9 2050.6 996.2 2044.6 988.7 L 2022.3 959.7 C 2019.8 956.4 2017 952.5 2017 949.3 C 2017 943.6 2022.7 940.8 2029.5 940.8 C 2041.6 940.9 2050.5 943.1 2062.3 952.7 L 2078.9 966.7 Z" class="g2_1"/>
    <path d="M 1470.7 398.1 C 1505.4 398.2 1533.7 370.3 1533.9 335.6 C 1534 300.8 1506.1 272.6 1471.3 272.4 C 1436.6 272.2 1408.4 300.2 1408.2 334.9 C 1408 369.6 1436 397.9 1470.7 398.1 Z" class="g2_1"/>
    <path d="M 1553.1 719.9 L 1504.3 703.9 L 1455.4 688 L 1406.6 672 L 1357.8 656 L 1309 640 L 1275.6 629.1 C 1278.1 640.5 1281.3 652.1 1285 663.6 L 1308.8 671.4 L 1357.6 687.4 L 1406.5 703.4 L 1455.3 719.4 L 1504.1 735.4 L 1552.9 751.4 L 1594.7 765 C 1600.2 759.2 1605.7 752.9 1611 746.3 C 1612.6 744.4 1614.2 742.4 1615.7 740.4 L 1601.9 735.9 Z" class="g1_1"/>
    <path d="M 1602.1 704.5 L 1643.6 691.4 C 1648.7 679.8 1652.9 667.8 1656.6 655.9 L 1553.3 688.5 Z" class="g1_1"/>
    <path d="M 1455.1 750.8 L 1406.3 734.8 L 1357.5 718.9 L 1308.6 702.9 L 1299 699.7 C 1305.5 713.5 1313 726.6 1321.9 738.7 L 1357.3 750.3 L 1406.1 766.3 L 1454.9 782.3 L 1540.1 810.1 C 1550.2 804.1 1560.2 796.9 1570.1 788.5 L 1503.9 766.8 Z" class="g1_1"/>
    <path d="M 1362.6 783.5 C 1388.4 806.8 1415.2 822.2 1441.6 828.5 C 1441.7 828.5 1441.7 828.5 1441.7 828.5 C 1441.8 828.5 1441.8 828.5 1441.9 828.5 C 1446.2 829.6 1450.6 830.3 1455.1 831 C 1463.9 832.4 1481.5 831.1 1481.5 831.1 C 1486.1 830.6 1490.5 829.9 1494.9 828.8 C 1496 828.5 1497.2 828.3 1498.3 828 L 1405.9 797.7 Z" class="g1_1"/>
    <path d="M 1431.6 549.8 C 1429.7 548.7 1427.9 547.7 1426 546.6 C 1423.2 545.1 1420.5 543.6 1417.7 542.1 C 1416.8 541.6 1415.8 541.1 1414.9 540.6 C 1413 539.6 1411.1 538.6 1409.1 537.5 C 1408 537 1406.9 536.4 1405.7 535.8 C 1403.9 534.9 1402.1 534 1400.3 533.1 C 1399.1 532.5 1397.9 531.9 1396.7 531.3 C 1394.9 530.4 1393.1 529.5 1391.3 528.7 C 1390 528.1 1388.7 527.5 1387.5 526.9 C 1385.6 526 1383.8 525.2 1381.9 524.3 C 1380.7 523.7 1379.4 523.2 1378.1 522.6 C 1376.2 521.7 1374.3 520.9 1372.3 520 C 1371.1 519.5 1369.8 518.9 1368.6 518.4 C 1366.4 517.4 1364.3 516.5 1362.1 515.6 C 1361 515.1 1360 514.7 1358.9 514.2 C 1358.7 514.1 1358.5 514.1 1358.3 514 C 1362.3 482.1 1369.8 453.6 1374.8 436.9 C 1393.9 449.2 1429.4 473.8 1460.9 504.6 C 1462.8 506.4 1464.6 508.3 1466.5 510.2 C 1466.9 510.6 1467.3 511 1467.6 511.3 C 1469.4 513.2 1471.1 515 1472.8 516.8 C 1473.1 517.1 1473.4 517.4 1473.7 517.8 C 1475.2 519.4 1476.8 521.1 1478.2 522.8 C 1478.5 523 1478.7 523.3 1478.9 523.5 C 1480.5 525.3 1482 527.1 1483.5 528.9 C 1483.9 529.3 1484.2 529.7 1484.5 530.1 C 1485.7 531.6 1486.9 533 1488.1 534.5 C 1469.3 539.6 1450.2 544.7 1431.6 549.8 M 1566.1 438 C 1570.6 453.7 1577.3 479.8 1581.1 509.5 C 1561.3 514.8 1539 520.8 1515.7 527.1 C 1515.1 526.3 1514.6 525.6 1514.1 524.9 C 1513.8 524.6 1513.6 524.2 1513.4 523.9 C 1512.1 522.2 1510.8 520.5 1509.4 518.8 C 1509.1 518.4 1508.8 518 1508.4 517.6 C 1507.4 516.2 1506.3 514.9 1505.2 513.6 C 1504.8 513.1 1504.4 512.6 1504 512.1 C 1502.7 510.5 1501.3 509 1500 507.4 C 1499.8 507.2 1499.7 507.1 1499.6 506.9 C 1498.1 505.2 1496.5 503.5 1495 501.8 C 1494.5 501.3 1494.1 500.8 1493.7 500.4 C 1492.5 499.1 1491.2 497.7 1490 496.4 C 1489.7 496.1 1489.4 495.8 1489.1 495.5 C 1518.2 469.4 1548.8 448.8 1566.1 438 M 1677.3 510.1 C 1677.3 510 1677.3 509.9 1677.3 509.8 C 1677.3 508.5 1677.3 507.4 1677.3 506.4 L 1677.3 506.3 C 1677.2 503.2 1677.2 501.2 1677.2 500.6 L 1676.6 484 L 1660.6 488.2 C 1660.5 488.2 1660.2 488.3 1659.8 488.4 C 1655.8 489.5 1635.8 494.8 1606.8 502.6 C 1600.2 453.6 1586.8 415.3 1586.1 413.5 L 1580.9 398.7 L 1567.2 406.4 C 1565 407.6 1516.2 435.3 1470.2 476.9 C 1424.8 434.8 1376.2 406.6 1374.1 405.3 L 1360.4 397.5 L 1355 412.2 C 1354.3 414.1 1340 453.7 1332.9 503.9 C 1302.3 492.4 1280.8 486.4 1279.8 486.1 L 1263.8 481.7 L 1263.1 498.3 C 1262.9 501.6 1261.3 543.6 1269.2 595.5 L 1340 618.7 L 1358 624.5 L 1406.8 640.5 L 1455.6 656.5 L 1504.4 672.5 L 1665.4 621.7 C 1667.1 613.6 1668.6 605.5 1669.9 597.7 C 1670 597.5 1670 597.2 1670 597 C 1670.1 596.5 1670.2 595.9 1670.3 595.4 C 1670.6 593.5 1670.9 591.6 1671.2 589.7 C 1671.2 589.3 1671.3 588.9 1671.4 588.5 L 1671.3 588.5 C 1673 576.9 1674.3 565.9 1675.1 555.9 C 1675.2 555.1 1675.3 554.4 1675.3 553.6 C 1675.4 553 1675.4 552.4 1675.5 551.8 C 1675.5 551.1 1675.6 550.4 1675.6 549.7 C 1675.7 549.1 1675.7 548.6 1675.8 548 C 1675.8 547.4 1675.8 546.8 1675.9 546.2 C 1675.9 545.7 1676 545.2 1676 544.6 C 1676.1 543.7 1676.1 542.8 1676.2 541.9 C 1676.2 541.3 1676.2 540.8 1676.3 540.3 C 1676.3 539.8 1676.3 539.2 1676.4 538.7 C 1676.4 538.2 1676.4 537.7 1676.5 537.2 C 1676.5 536.6 1676.5 536 1676.6 535.4 C 1676.6 534.6 1676.6 533.9 1676.7 533.1 C 1676.7 532.6 1676.7 532.2 1676.7 531.7 C 1676.8 531.2 1676.8 530.7 1676.8 530.2 C 1676.8 529.7 1676.8 529.3 1676.9 528.9 C 1676.9 528.2 1676.9 527.5 1676.9 526.8 C 1677 526.3 1677 525.7 1677 525.2 C 1677 524.8 1677 524.3 1677 523.9 C 1677 523.5 1677.1 523 1677.1 522.6 C 1677.1 522.2 1677.1 521.8 1677.1 521.4 C 1677.1 520.7 1677.1 520 1677.2 519.3 C 1677.2 519 1677.2 518.7 1677.2 518.4 C 1677.2 517.9 1677.2 517.5 1677.2 517 C 1677.2 516.7 1677.2 516.4 1677.2 516.1 C 1677.2 515.6 1677.2 515.1 1677.2 514.6 C 1677.2 514.4 1677.2 514.2 1677.2 514 C 1677.3 513.4 1677.3 512.7 1677.3 512.1 C 1677.3 511.9 1677.3 511.8 1677.3 511.6 C 1677.3 511.1 1677.3 510.6 1677.3 510.1 Z" class="g2_1"/>
    <path d="M 610.1 1315 C 610.1 1313.5 611.2 1312.3 612.7 1312.3 C 614.2 1312.3 615.3 1313.4 615.3 1315 L 615.3 1322.9 C 618.9 1316.5 625.1 1311.5 635 1311.6 C 648.8 1311.7 656.7 1321.1 656.6 1334.1 L 656.5 1365.2 C 656.5 1366.8 655.4 1367.9 653.9 1367.9 C 652.4 1367.9 651.2 1366.8 651.2 1365.2 L 651.4 1335.1 C 651.5 1323.9 645.2 1316.5 634.2 1316.4 C 623.5 1316.3 615.3 1324.4 615.2 1335.7 L 615 1365 C 615 1366.6 614 1367.7 612.5 1367.6 C 611 1367.6 609.8 1366.6 609.8 1365 Z" class="g1_1"/>
    <path d="M 807.9 1347.9 L 807.9 1341.7 C 803.4 1340.5 797.3 1339.2 789.5 1339.1 C 777.9 1339.1 771.5 1344.2 771.5 1351.7 L 771.5 1352 C 771.4 1359.9 778.9 1364.5 787.2 1364.5 C 798.3 1364.6 807.8 1357.8 807.9 1347.9 M 765.9 1352.2 L 765.9 1352 C 766 1340.7 775.7 1334.4 789.8 1334.4 C 797.4 1334.5 802.6 1335.5 807.9 1336.9 L 807.9 1334.5 C 807.9 1323.5 801.2 1317.8 790 1317.8 C 784 1317.7 779 1319.2 774.5 1321.3 C 774.1 1321.5 773.7 1321.6 773.3 1321.6 C 772.1 1321.6 770.9 1320.5 770.9 1319.2 C 770.9 1317.9 771.9 1317 772.4 1316.8 C 778 1314.4 783.4 1312.8 790.4 1312.9 C 797.7 1312.9 803.6 1315 807.5 1318.9 C 811.1 1322.6 813 1327.6 813 1334.3 L 812.8 1366.1 C 812.8 1367.7 811.7 1368.7 810.2 1368.7 C 808.8 1368.7 807.7 1367.6 807.7 1366 L 807.7 1359.2 C 804 1364.4 797.2 1369.5 786.9 1369.4 C 776.7 1369.4 765.9 1363.6 765.9 1352.2 Z" class="g1_1"/>
    <path d="M 928.9 1341.5 L 928.9 1341.7 C 928.9 1356 938.7 1365.3 950.2 1365.3 C 961.5 1365.4 972.4 1355.9 972.5 1342 L 972.5 1341.8 C 972.6 1327.8 961.7 1318.4 950.4 1318.3 C 938.6 1318.3 929 1326.9 928.9 1341.5 M 977.3 1367 C 977.3 1368.6 976.2 1369.6 974.7 1369.6 C 973.2 1369.6 972 1368.5 972 1366.9 L 972.1 1357 C 967.4 1364.1 960.4 1370.4 949.6 1370.3 C 936.5 1370.3 923.2 1359.6 923.3 1341.9 L 923.3 1341.7 C 923.4 1323.9 936.8 1313.2 949.9 1313.3 C 960.8 1313.4 967.8 1319.6 972.3 1326.5 L 972.4 1293.5 C 972.5 1291.9 973.5 1290.8 975 1290.8 C 976.5 1290.8 977.7 1291.9 977.7 1293.5 Z" class="g1_1"/>
    <path d="M 1129.8 1349.6 L 1129.8 1343.4 C 1125.2 1342.2 1119.1 1340.9 1111.3 1340.9 C 1099.8 1340.8 1093.4 1345.9 1093.3 1353.5 L 1093.3 1353.7 C 1093.3 1361.6 1100.7 1366.2 1109.1 1366.3 C 1120.2 1366.3 1129.7 1359.6 1129.8 1349.6 M 1087.8 1354 L 1087.8 1353.8 C 1087.8 1342.5 1097.6 1336.1 1111.7 1336.2 C 1119.3 1336.2 1124.5 1337.2 1129.7 1338.6 L 1129.7 1336.3 C 1129.8 1325.3 1123.1 1319.6 1111.9 1319.5 C 1105.9 1319.5 1100.9 1321 1096.4 1323.1 C 1096 1323.3 1095.5 1323.4 1095.2 1323.4 C 1093.9 1323.4 1092.8 1322.2 1092.8 1320.9 C 1092.8 1319.6 1093.7 1318.8 1094.3 1318.6 C 1099.8 1316.2 1105.3 1314.6 1112.2 1314.6 C 1119.6 1314.7 1125.5 1316.7 1129.4 1320.7 C 1133 1324.3 1134.9 1329.4 1134.9 1336.1 L 1134.7 1367.8 C 1134.7 1369.4 1133.6 1370.5 1132.1 1370.5 C 1130.6 1370.5 1129.6 1369.4 1129.6 1367.8 L 1129.6 1360.9 C 1125.8 1366.2 1119.1 1371.3 1108.7 1371.2 C 1098.6 1371.1 1087.7 1365.3 1087.8 1354 Z" class="g1_1"/>
    <path d="M 1279.3 1295.3 C 1280.6 1294.2 1281.3 1294 1282.7 1294 C 1283.5 1294 1284.1 1294.5 1284.1 1295 C 1284.1 1295.5 1284 1295.8 1283.5 1296.3 L 1275.8 1305.7 C 1274.8 1306.9 1274.1 1307.6 1272.8 1307.6 L 1271.9 1307.6 C 1270.7 1307.6 1269.9 1306.8 1269 1305.6 L 1261.3 1296.2 C 1260.9 1295.7 1260.8 1295.3 1260.8 1294.9 C 1260.8 1294.4 1261.3 1293.9 1262.3 1293.9 C 1263.7 1293.9 1264.5 1294.1 1265.8 1295.3 L 1272.5 1301.5 Z M 1244.9 1343.6 L 1244.9 1343.4 C 1245 1328.2 1257.3 1315 1272.9 1315.1 C 1282.3 1315.1 1288.4 1319.2 1293.3 1323.8 C 1293.7 1324.3 1294.1 1325 1294 1325.7 C 1294 1327.2 1292.9 1328.4 1291.4 1328.4 C 1290.7 1328.4 1290 1328.2 1289.6 1327.8 C 1285.2 1323.6 1280.1 1320 1272.7 1320 C 1260.3 1319.9 1250.7 1330.2 1250.6 1343.2 L 1250.6 1343.5 C 1250.5 1356.6 1260.4 1367.1 1272.9 1367.2 C 1279.9 1367.2 1285.6 1363.8 1290 1359.5 C 1290.4 1359 1291 1358.6 1291.7 1358.6 C 1293 1358.6 1294.3 1359.9 1294.3 1361.2 C 1294.3 1361.7 1294.1 1362.4 1293.6 1362.8 C 1288.2 1368.3 1281.8 1372.1 1272.5 1372.1 C 1256.8 1372 1244.9 1358.9 1244.9 1343.6 Z" class="g1_1"/>
    <path d="M 1404.8 1319.3 C 1404.8 1317.8 1405.9 1316.6 1407.4 1316.6 C 1408.9 1316.7 1410.1 1317.7 1410.1 1319.3 L 1410 1327.2 C 1413.7 1320.8 1419.8 1315.9 1429.7 1315.9 C 1443.5 1316 1451.5 1325.4 1451.4 1338.5 L 1451.2 1369.5 C 1451.2 1371.1 1450.1 1372.2 1448.7 1372.2 C 1447.2 1372.2 1446 1371.1 1446 1369.5 L 1446.2 1339.4 C 1446.2 1328.2 1440 1320.8 1429 1320.7 C 1418.3 1320.7 1410 1328.7 1410 1340 L 1409.8 1369.3 C 1409.8 1370.9 1408.7 1372 1407.2 1372 C 1405.7 1372 1404.6 1370.9 1404.6 1369.3 Z" class="g1_1"/>
    <path d="M 1567.2 1308.2 C 1567.2 1307.8 1567.4 1307.4 1567.7 1307.1 L 1574.3 1297.2 C 1575.2 1295.9 1576 1295.2 1577.3 1295.3 C 1579.4 1295.3 1581.8 1296.7 1581.8 1297.7 C 1581.8 1298.4 1581.3 1299 1580.6 1299.6 L 1572 1307.8 C 1570.7 1309 1570 1309.2 1568.6 1309.2 C 1567.9 1309.2 1567.2 1308.8 1567.2 1308.2 M 1566.1 1320.2 C 1566.1 1318.7 1567.2 1317.5 1568.7 1317.5 C 1570.2 1317.5 1571.3 1318.6 1571.3 1320.2 L 1571.1 1370.2 C 1571 1371.8 1570 1372.8 1568.5 1372.8 C 1567 1372.8 1565.8 1371.8 1565.8 1370.2 Z" class="g1_1"/>
    <path d="M 1817.3 1324.1 L 1811.4 1324.1 C 1810 1324.1 1808.9 1323 1808.9 1321.6 C 1808.9 1320.3 1810.1 1319.3 1811.4 1319.3 L 1817.3 1319.3 L 1817.3 1314 C 1817.3 1307.8 1819.1 1302.9 1822.2 1299.8 C 1825 1297 1828.8 1295.6 1833.6 1295.6 C 1836.3 1295.6 1838.3 1295.9 1840.1 1296.4 C 1841.3 1296.6 1842.2 1297.7 1842.2 1298.8 C 1842.2 1300.3 1840.8 1301.4 1839.2 1301.1 C 1837.5 1300.7 1835.6 1300.4 1833.6 1300.4 C 1826.1 1300.3 1822.6 1304.8 1822.5 1314.1 L 1822.5 1319.3 L 1839.5 1319.4 C 1840.9 1319.4 1841.9 1320.5 1841.9 1321.9 C 1841.9 1323.2 1840.7 1324.2 1839.5 1324.2 L 1822.5 1324.1 L 1822.2 1371.6 C 1822.2 1373 1821.1 1374.2 1819.6 1374.2 C 1818.2 1374.2 1817 1373 1817 1371.5 Z" class="g1_1"/>
    <path d="M 1993.1 1347.7 L 1993.1 1347.5 C 1993.2 1334.4 1983.4 1323.8 1970.8 1323.8 C 1957.9 1323.7 1948.6 1334.2 1948.5 1347 L 1948.5 1347.2 C 1948.4 1360.4 1958.2 1370.9 1970.8 1371 C 1983.7 1371 1993.1 1360.5 1993.1 1347.7 M 1942.8 1347.4 L 1942.8 1347.2 C 1942.9 1331.9 1954.8 1318.8 1971.1 1318.9 C 1987.2 1318.9 1998.9 1332 1998.8 1347.3 L 1998.8 1347.5 C 1998.7 1362.8 1986.8 1376 1970.5 1375.9 C 1954.4 1375.8 1942.7 1362.7 1942.8 1347.4 Z" class="g1_1"/>
    <path d="M 2110.1 1323.1 C 2110.1 1321.6 2111.2 1320.5 2112.7 1320.5 C 2114.2 1320.5 2115.3 1321.6 2115.3 1323.2 L 2115.3 1331.1 C 2118.9 1324.7 2125.1 1319.7 2135 1319.7 C 2148.8 1319.8 2156.7 1329.3 2156.7 1342.3 L 2156.5 1373.4 C 2156.5 1375 2155.4 1376 2153.9 1376 C 2152.4 1376 2151.2 1374.9 2151.3 1373.3 L 2151.4 1343.2 C 2151.5 1332 2145.2 1324.6 2134.2 1324.6 C 2123.5 1324.5 2115.3 1332.6 2115.2 1343.9 L 2115.1 1373.1 C 2115 1374.7 2114 1375.8 2112.5 1375.8 C 2111 1375.8 2109.8 1374.7 2109.8 1373.1 Z" class="g1_1"/>
    <path d="M 2272.6 1348.8 L 2272.6 1349 C 2272.5 1363.3 2282.4 1372.6 2293.8 1372.6 C 2305.2 1372.7 2316.1 1363.2 2316.2 1349.4 L 2316.2 1349.1 C 2316.2 1335.2 2305.4 1325.7 2294.1 1325.6 C 2282.2 1325.6 2272.7 1334.2 2272.6 1348.8 M 2320.9 1374.3 C 2320.9 1375.9 2319.9 1376.9 2318.4 1376.9 C 2316.9 1376.9 2315.7 1375.8 2315.7 1374.2 L 2315.8 1364.3 C 2311 1371.4 2304.1 1377.7 2293.3 1377.6 C 2280.1 1377.6 2266.8 1366.9 2266.9 1349.2 L 2266.9 1349 C 2267 1331.3 2280.4 1320.5 2293.6 1320.6 C 2304.5 1320.7 2311.5 1326.9 2315.9 1333.8 L 2316.1 1300.8 C 2316.1 1299.2 2317.2 1298.1 2318.7 1298.1 C 2320.2 1298.1 2321.4 1299.2 2321.3 1300.8 Z" class="g1_1"/>
  </g>
</svg>