<?xml version="1.0" encoding="utf-8"?>
<svg width="nullpx" height="332.79998779296875" viewBox="242.9 175.3 527 342.8" style="background-color: black;" xmlns="http://www.w3.org/2000/svg">
  <defs>
    <style type="text/css">
	.st0{fill:#724640;}
	.st1{fill:#87AF4A;}
</style>
  </defs>
  <g transform="matrix(1, 0, 0, 1, 0, 0)">
    <g>
      <g>
        <path d="M247.9,452l29.9-32.7l-28.8-0.2l0.1-13.2l49.1,0.3l-0.1,11.5l-30,32.7l29.9,0.2l-0.1,13.2l-50-0.3L247.9,452z" style="fill: rgb(255, 255, 255);"/>
        <path d="M306,435.4l0-0.2c0.1-16.4,11.9-29.9,28.6-29.8c19.2,0.1,27.9,15.1,27.9,31.4c0,1.3-0.1,2.8-0.2,4.3l-40.1-0.2&#10;&#9;&#9;&#9;&#9;&#9;c1.6,7.4,6.7,11.3,14,11.4c5.5,0,9.5-1.7,14-5.8l9.3,8.3c-5.4,6.6-13.2,10.7-23.6,10.6C318.6,465.2,305.9,453,306,435.4z&#10;&#9;&#9;&#9;&#9;&#9; M346.6,430.8c-0.9-7.3-5.2-12.3-12.1-12.3c-6.8,0-11.2,4.8-12.5,12.2L346.6,430.8z" style="fill: rgb(255, 255, 255);"/>
        <path d="M374.7,406.7l16.3,0.1l0,8.2c3.8-4.8,8.7-9.2,17-9.1c7.5,0,13.2,3.4,16.2,9.2c5.1-5.9,11.1-9.1,18.9-9&#10;&#9;&#9;&#9;&#9;&#9;c12.1,0.1,19.4,7.4,19.3,21.3l-0.2,37.5l-16.3-0.1l0.2-32.1c0-7.7-3.4-11.7-9.5-11.8c-6.1,0-9.9,3.9-9.9,11.7l-0.2,32.1&#10;&#9;&#9;&#9;&#9;&#9;l-16.3-0.1l0.2-32.1c0-7.7-3.4-11.7-9.5-11.8c-6.1,0-9.9,3.9-9.9,11.7l-0.2,32.1l-16.3-0.1L374.7,406.7z" style="fill: rgb(255, 255, 255);"/>
        <path d="M473.8,436.3l0-0.2c0.1-16.4,11.9-29.9,28.6-29.8c19.2,0.1,27.9,15.1,27.9,31.4c0,1.3-0.1,2.8-0.2,4.3l-40.1-0.2&#10;&#9;&#9;&#9;&#9;&#9;c1.6,7.4,6.7,11.3,14,11.4c5.5,0,9.5-1.7,14-5.8l9.3,8.3c-5.4,6.6-13.2,10.7-23.6,10.6C486.4,466.1,473.7,453.9,473.8,436.3z&#10;&#9;&#9;&#9;&#9;&#9; M514.4,431.7c-0.9-7.3-5.2-12.3-12.1-12.3c-6.8,0-11.2,4.8-12.5,12.2L514.4,431.7z" style="fill: rgb(255, 255, 255);"/>
        <path d="M481.6,381.2l12.6,0.1l8.4,7.1l8.5-7l12.3,0.1l-13.3,16.8l-15.5-0.1L481.6,381.2z" style="fill: rgb(255, 255, 255);"/>
      </g>
      <g>
        <path d="M542.7,394.2c0-4.5,3.7-8.1,8.2-8.1c4.5,0,8.1,3.7,8.1,8.2l-0.2,35.7l20.5-19.2c2.4-2.2,4.3-3.6,7.2-3.6&#10;&#9;&#9;&#9;&#9;&#9;c4.4,0,7.2,3.6,7.2,7.3c0,2.8-1.5,4.9-3.8,7.1l-12.9,11l15.2,20.8c1.4,1.9,2,3.4,2,5.3c0,4.4-3.6,7.4-7.7,7.4&#10;&#9;&#9;&#9;&#9;&#9;c-3.2,0-5.1-1.1-7.1-3.8l-14.2-19.7l-6.6,5.9l-0.1,9.3c0,4.5-3.7,8.1-8.2,8.1c-4.5,0-8.1-3.7-8.1-8.2L542.7,394.2z" style="fill: rgb(255, 255, 255);"/>
        <path d="M629,466.8l-0.9,0c-4.4,0-7.4-2.8-9.2-7.1l-17.4-40.8c-0.4-1.1-0.8-2.5-0.8-4c0-3.9,3.6-7.6,8-7.6&#10;&#9;&#9;&#9;&#9;&#9;c4.4,0,6.8,2.5,7.9,5.8l12.2,33.5l12.7-33.5c1.1-2.8,3.4-5.6,7.7-5.5c4.3,0,7.8,3.4,7.8,7.8c0,1.4-0.6,3.1-0.9,3.9l-17.8,40.6&#10;&#9;&#9;&#9;&#9;&#9;C636.5,463.9,633.4,466.8,629,466.8z" style="fill: rgb(255, 255, 255);"/>
        <path d="M692.8,467.2c-17.3-0.1-30-12.3-29.9-29.9l0-0.2c0.1-16.4,11.9-29.9,28.6-29.8c19.2,0.1,27.6,15.9,27.6,27.9&#10;&#9;&#9;&#9;&#9;&#9;c0,4.7-3.4,7.8-7.7,7.8l-32.3-0.2c1.6,7.4,6.7,11.3,14,11.4c4.5,0,8.3-1.4,11.6-3.8c1.2-0.9,2.3-1.3,4-1.3&#10;&#9;&#9;&#9;&#9;&#9;c3.7,0,6.3,2.8,6.3,6.5c0,2.1-1,3.8-2.2,4.8C707.8,464.6,701.2,467.3,692.8,467.2z M703.5,432.7c-0.9-7.3-5.2-12.3-12.1-12.3&#10;&#9;&#9;&#9;&#9;&#9;c-6.8,0-11.2,4.8-12.5,12.2L703.5,432.7z" style="fill: rgb(255, 255, 255);"/>
        <path d="M734.2,449.8l0.1-27.3l-0.5,0c-3.9,0-7-3.2-6.9-7c0-3.9,3.2-7,7-6.9l0.5,0l0-7.2c0-4.5,3.7-8.1,8.2-8.1&#10;&#9;&#9;&#9;&#9;&#9;c4.5,0,8.1,3.7,8.1,8.2l0,7.2l7.2,0c3.9,0,7,3.2,6.9,7c0,3.9-3.2,7-7,6.9l-7.2,0l-0.1,24.6c0,3.8,1.6,5.6,5.2,5.6&#10;&#9;&#9;&#9;&#9;&#9;c0.5,0,1.6-0.1,1.9-0.1c3.7,0,6.7,3,6.7,6.8c0,2.9-2,5.3-4.2,6.1c-3,1.2-5.8,1.6-9.4,1.6C740.8,467.2,734.1,463.2,734.2,449.8z" style="fill: rgb(255, 255, 255);"/>
        <path d="M695.8,385.3c3.6-2.9,6.2-3.5,9.9-3.5c2,0,3.5,0.9,3.5,2.6c0,1-0.9,2.1-1.6,3.1l-6.8,8.7c-1.8,2.2-3.9,3.6-7.6,3.6&#10;&#9;&#9;&#9;&#9;&#9;l-5.2,0c-3.8,0-5.8-1.4-7.6-3.7l-6.7-8.7c-0.7-1-1.6-2.2-1.6-3.1c0-1.7,1.7-2.6,3.8-2.6c3.7,0,6.3,0.7,9.9,3.6l5,4.2&#10;&#9;&#9;&#9;&#9;&#9;L695.8,385.3z" style="fill: rgb(255, 255, 255);"/>
      </g>
    </g>
    <g>
      <circle cx="507.6" cy="199.2" r="18.9" style="fill: rgb(255, 255, 255);"/>
      <path d="M532.4,315.1l-14.7-4.8l-14.7-4.8l-14.7-4.8l-14.7-4.8l-14.7-4.8l-10.1-3.3c0.8,3.4,1.7,6.9,2.8,10.4l7.2,2.4l14.7,4.8&#10;&#9;&#9;&#9;&#9;l14.7,4.8l14.7,4.8l14.7,4.8l14.7,4.8l12.6,4.1c1.7-1.8,3.3-3.6,4.9-5.6c0.5-0.6,0.9-1.2,1.4-1.8l-4.1-1.4L532.4,315.1z" style="fill: rgb(255, 255, 255);"/>
      <path d="M547.1,310.4l12.5-3.9c1.5-3.5,2.8-7.1,3.9-10.7l-31.1,9.8L547.1,310.4z" style="fill: rgb(255, 255, 255);"/>
      <path d="M502.8,324.4l-14.7-4.8l-14.7-4.8l-14.7-4.8l-2.9-0.9c1.9,4.1,4.2,8.1,6.9,11.7l10.7,3.5l14.7,4.8l14.7,4.8l25.6,8.4&#10;&#9;&#9;&#9;&#9;c3-1.8,6.1-4,9-6.5l-19.9-6.5L502.8,324.4z" style="fill: rgb(255, 255, 255);"/>
      <path d="M475,334.2c7.8,7,15.8,11.6,23.8,13.5c0,0,0,0,0,0c0,0,0,0,0,0c0,0,0,0,0.1,0v0c1.3,0.3,2.6,0.5,4,0.7c2.7,0.4,8,0,8,0&#10;&#9;&#9;&#9;&#9;c1.4-0.2,2.7-0.4,4-0.7c0.3-0.1,0.7-0.2,1-0.3l-27.8-9.1L475,334.2z" style="fill: rgb(255, 255, 255);"/>
      <path d="M569.8,251.9c0,0,0-0.1,0-0.1c0-0.4,0-0.7,0-1c0,0,0,0,0,0c0-0.9,0-1.5,0-1.7l-0.2-5l-4.8,1.3c0,0-0.1,0-0.2,0.1&#10;&#9;&#9;&#9;&#9;c-1.2,0.3-7.2,1.9-15.9,4.3c-2-14.7-6-26.3-6.2-26.8l-1.6-4.5l-4.1,2.3c-0.7,0.4-15.4,8.7-29.2,21.2&#10;&#9;&#9;&#9;&#9;c-13.7-12.7-28.3-21.2-29-21.6l-4.1-2.4l-1.6,4.5c-0.2,0.6-4.5,12.5-6.6,27.6c-9.2-3.5-15.7-5.3-16-5.4l-4.8-1.3l-0.2,5&#10;&#9;&#9;&#9;&#9;c0,1-0.5,13.6,1.9,29.3l21.3,7l5.4,1.8l14.7,4.8l0,0L503,296h0l14.7,4.8l48.5-15.3c0.5-2.5,1-4.9,1.4-7.2l0,0c0-0.1,0-0.1,0-0.2&#10;&#9;&#9;&#9;&#9;c0-0.2,0.1-0.3,0.1-0.5c0.1-0.6,0.2-1.1,0.3-1.7c0-0.1,0-0.2,0.1-0.4l0,0c0.5-3.5,0.9-6.8,1.1-9.8l0,0c0-0.2,0-0.5,0.1-0.7&#10;&#9;&#9;&#9;&#9;c0-0.2,0-0.4,0-0.6c0-0.2,0-0.4,0.1-0.6c0-0.2,0-0.3,0-0.5c0-0.2,0-0.4,0-0.6c0-0.2,0-0.3,0-0.5c0-0.3,0-0.6,0.1-0.8&#10;&#9;&#9;&#9;&#9;c0-0.2,0-0.3,0-0.5c0-0.2,0-0.3,0-0.5c0-0.2,0-0.3,0-0.5c0-0.2,0-0.4,0-0.5c0-0.2,0-0.5,0-0.7c0-0.1,0-0.3,0-0.4&#10;&#9;&#9;&#9;&#9;c0-0.2,0-0.3,0-0.5c0-0.1,0-0.3,0-0.4c0-0.2,0-0.4,0-0.6c0-0.2,0-0.3,0-0.5c0-0.1,0-0.3,0-0.4c0-0.1,0-0.3,0-0.4&#10;&#9;&#9;&#9;&#9;c0-0.1,0-0.2,0-0.4c0-0.2,0-0.4,0-0.6c0-0.1,0-0.2,0-0.3c0-0.1,0-0.3,0-0.4c0-0.1,0-0.2,0-0.3c0-0.2,0-0.3,0-0.5&#10;&#9;&#9;&#9;&#9;c0-0.1,0-0.1,0-0.2c0-0.2,0-0.4,0-0.6c0-0.1,0-0.1,0-0.2C569.8,252.2,569.8,252,569.8,251.9z M536.3,230.2&#10;&#9;&#9;&#9;&#9;c1.4,4.7,3.4,12.6,4.5,21.5c-6,1.6-12.7,3.4-19.7,5.3c-0.2-0.2-0.3-0.4-0.5-0.7c-0.1-0.1-0.1-0.2-0.2-0.3c-0.4-0.5-0.8-1-1.2-1.5&#10;&#9;&#9;&#9;&#9;c-0.1-0.1-0.2-0.3-0.3-0.4c-0.3-0.4-0.6-0.8-1-1.2c-0.1-0.2-0.3-0.3-0.4-0.5c-0.4-0.5-0.8-0.9-1.2-1.4c0,0-0.1-0.1-0.1-0.1&#10;&#9;&#9;&#9;&#9;c-0.4-0.5-0.9-1-1.4-1.5c-0.1-0.1-0.3-0.3-0.4-0.4c-0.4-0.4-0.7-0.8-1.1-1.2c-0.1-0.1-0.2-0.2-0.3-0.3&#10;&#9;&#9;&#9;&#9;C521.8,239.6,531.1,233.5,536.3,230.2z M495.8,263.9c-0.6-0.3-1.1-0.6-1.7-1c-0.8-0.5-1.7-0.9-2.5-1.4c-0.3-0.1-0.6-0.3-0.8-0.4&#10;&#9;&#9;&#9;&#9;c-0.6-0.3-1.2-0.6-1.8-0.9c-0.3-0.2-0.7-0.3-1-0.5c-0.5-0.3-1.1-0.6-1.6-0.8c-0.4-0.2-0.7-0.4-1.1-0.5c-0.5-0.3-1.1-0.5-1.6-0.8&#10;&#9;&#9;&#9;&#9;c-0.4-0.2-0.8-0.4-1.1-0.5c-0.5-0.3-1.1-0.5-1.7-0.8c-0.4-0.2-0.8-0.4-1.2-0.5c-0.6-0.3-1.2-0.5-1.7-0.8&#10;&#9;&#9;&#9;&#9;c-0.4-0.2-0.7-0.3-1.1-0.5c-0.6-0.3-1.3-0.6-1.9-0.8c-0.3-0.1-0.6-0.3-1-0.4c-0.1,0-0.1,0-0.2-0.1c1.2-9.6,3.5-18.2,5-23.2&#10;&#9;&#9;&#9;&#9;c5.8,3.7,16.4,11.1,25.9,20.4c0.6,0.6,1.1,1.1,1.7,1.7c0.1,0.1,0.2,0.2,0.3,0.4c0.5,0.5,1,1.1,1.6,1.6c0.1,0.1,0.2,0.2,0.3,0.3&#10;&#9;&#9;&#9;&#9;c0.5,0.5,0.9,1,1.4,1.5c0.1,0.1,0.1,0.2,0.2,0.2c0.5,0.5,0.9,1.1,1.4,1.6c0.1,0.1,0.2,0.2,0.3,0.4c0.4,0.4,0.7,0.9,1.1,1.3&#10;&#9;&#9;&#9;&#9;C507.1,260.8,501.4,262.3,495.8,263.9z" style="fill: rgb(255, 255, 255);"/>
    </g>
    <g>
      <path d="M248.4,494.3c0-0.5,0.3-0.8,0.8-0.8c0.5,0,0.8,0.3,0.8,0.8l0,2.4c1.1-1.9,2.9-3.4,5.9-3.4c4.1,0,6.5,2.9,6.5,6.8&#10;&#9;&#9;&#9;&#9;l-0.1,9.4c0,0.5-0.3,0.8-0.8,0.8s-0.8-0.3-0.8-0.8l0-9.1c0-3.4-1.9-5.6-5.2-5.6c-3.2,0-5.7,2.4-5.7,5.8l0,8.8&#10;&#9;&#9;&#9;&#9;c0,0.5-0.3,0.8-0.8,0.8c-0.5,0-0.8-0.3-0.8-0.8L248.4,494.3z" style="fill: rgb(255, 255, 255);"/>
      <path d="M295.3,505.5L295.3,505.5c0-3.5,3-5.4,7.2-5.4c2.3,0,3.9,0.3,5.4,0.7l0-0.7c0-3.3-2-5-5.4-5c-1.8,0-3.3,0.4-4.7,1.1&#10;&#9;&#9;&#9;&#9;c-0.1,0.1-0.3,0.1-0.4,0.1c-0.4,0-0.7-0.4-0.7-0.7c0-0.4,0.3-0.6,0.5-0.7c1.7-0.7,3.3-1.2,5.4-1.2c2.2,0,4,0.6,5.2,1.8&#10;&#9;&#9;&#9;&#9;c1.1,1.1,1.7,2.6,1.6,4.6l-0.1,9.6c0,0.5-0.3,0.8-0.8,0.8c-0.5,0-0.8-0.3-0.8-0.8l0-2.1c-1.1,1.6-3.2,3.1-6.3,3.1&#10;&#9;&#9;&#9;&#9;C298.5,510.7,295.3,508.9,295.3,505.5z M307.9,504.2l0-1.9c-1.4-0.4-3.2-0.8-5.6-0.8c-3.5,0-5.4,1.5-5.4,3.8l0,0.1&#10;&#9;&#9;&#9;&#9;c0,2.4,2.2,3.8,4.7,3.8C305.1,509.2,307.9,507.2,307.9,504.2z" style="fill: rgb(255, 255, 255);"/>
      <path d="M359,509.9c0,0.5-0.3,0.8-0.8,0.8s-0.8-0.3-0.8-0.8l0-3c-1.4,2.1-3.5,4-6.8,4c-4,0-8-3.2-7.9-8.6l0-0.1&#10;&#9;&#9;&#9;&#9;c0-5.3,4.1-8.6,8-8.5c3.3,0,5.4,1.9,6.7,4l0.1-9.9c0-0.5,0.3-0.8,0.8-0.8s0.8,0.3,0.8,0.8L359,509.9z M344.4,502.3L344.4,502.3&#10;&#9;&#9;&#9;&#9;c0,4.4,3,7.2,6.4,7.2c3.4,0,6.7-2.8,6.7-7l0-0.1c0-4.2-3.2-7.1-6.7-7.1C347.3,495.3,344.4,497.9,344.4,502.3z" style="fill: rgb(255, 255, 255);"/>
      <path d="M392.2,506L392.2,506c0-3.5,3-5.4,7.2-5.4c2.3,0,3.9,0.3,5.4,0.7l0-0.7c0-3.3-2-5-5.4-5c-1.8,0-3.3,0.4-4.7,1.1&#10;&#9;&#9;&#9;&#9;c-0.1,0.1-0.3,0.1-0.4,0.1c-0.4,0-0.7-0.4-0.7-0.7c0-0.4,0.3-0.6,0.5-0.7c1.7-0.7,3.3-1.2,5.4-1.2c2.2,0,4,0.6,5.2,1.8&#10;&#9;&#9;&#9;&#9;c1.1,1.1,1.7,2.6,1.6,4.6l-0.1,9.6c0,0.5-0.3,0.8-0.8,0.8c-0.5,0-0.8-0.3-0.8-0.8l0-2.1c-1.1,1.6-3.2,3.1-6.3,3.1&#10;&#9;&#9;&#9;&#9;C395.5,511.2,392.2,509.4,392.2,506z M404.9,504.7l0-1.9c-1.4-0.4-3.2-0.8-5.6-0.8c-3.5,0-5.4,1.5-5.4,3.8l0,0.1&#10;&#9;&#9;&#9;&#9;c0,2.4,2.2,3.8,4.7,3.8C402,509.8,404.9,507.7,404.9,504.7z" style="fill: rgb(255, 255, 255);"/>
      <path d="M439.6,502.9L439.6,502.9c0-4.7,3.7-8.6,8.4-8.6c2.8,0,4.7,1.2,6.2,2.6c0.1,0.1,0.2,0.4,0.2,0.6c0,0.5-0.4,0.8-0.8,0.8&#10;&#9;&#9;&#9;&#9;c-0.2,0-0.4-0.1-0.5-0.2c-1.3-1.3-2.8-2.3-5.1-2.3c-3.7,0-6.6,3.1-6.7,7l0,0.1c0,4,3,7.1,6.7,7.1c2.1,0,3.8-1,5.2-2.3&#10;&#9;&#9;&#9;&#9;c0.1-0.1,0.3-0.3,0.5-0.3c0.4,0,0.8,0.4,0.8,0.8c0,0.2-0.1,0.4-0.2,0.5c-1.6,1.7-3.6,2.8-6.4,2.8&#10;&#9;&#9;&#9;&#9;C443.1,511.5,439.5,507.5,439.6,502.9z M449.9,488.4c0.4-0.4,0.6-0.4,1-0.4c0.3,0,0.4,0.2,0.4,0.3c0,0.1,0,0.2-0.2,0.4l-2.3,2.8&#10;&#9;&#9;&#9;&#9;c-0.3,0.4-0.5,0.6-0.9,0.6l-0.3,0c-0.4,0-0.6-0.2-0.9-0.6l-2.3-2.8c-0.1-0.2-0.2-0.3-0.2-0.4c0-0.2,0.2-0.3,0.5-0.3&#10;&#9;&#9;&#9;&#9;c0.4,0,0.7,0.1,1.1,0.4l2,1.9L449.9,488.4z" style="fill: rgb(255, 255, 255);"/>
      <path d="M487.7,495.6c0-0.5,0.3-0.8,0.8-0.8c0.5,0,0.8,0.3,0.8,0.8l0,2.4c1.1-1.9,2.9-3.4,5.9-3.4c4.1,0,6.5,2.9,6.5,6.8&#10;&#9;&#9;&#9;&#9;l-0.1,9.4c0,0.5-0.3,0.8-0.8,0.8c-0.5,0-0.8-0.3-0.8-0.8l0-9.1c0-3.4-1.9-5.6-5.2-5.6c-3.2,0-5.7,2.4-5.7,5.8l0,8.8&#10;&#9;&#9;&#9;&#9;c0,0.5-0.3,0.8-0.8,0.8c-0.5,0-0.8-0.3-0.8-0.8L487.7,495.6z" style="fill: rgb(255, 255, 255);"/>
      <path d="M536.3,495.9c0-0.5,0.3-0.8,0.8-0.8c0.5,0,0.8,0.3,0.8,0.8l-0.1,15.1c0,0.5-0.3,0.8-0.8,0.8c-0.5,0-0.8-0.3-0.8-0.8&#10;&#9;&#9;&#9;&#9;L536.3,495.9z M536.6,492.3c0-0.1,0.1-0.3,0.1-0.4l2-3c0.3-0.4,0.5-0.6,0.9-0.6c0.6,0,1.3,0.4,1.3,0.7c0,0.2-0.2,0.4-0.4,0.6&#10;&#9;&#9;&#9;&#9;l-2.6,2.5c-0.4,0.4-0.6,0.4-1,0.4C536.8,492.5,536.6,492.4,536.6,492.3z" style="fill: rgb(255, 255, 255);"/>
      <path d="M611.9,497l-1.8,0c-0.4,0-0.7-0.3-0.7-0.7c0-0.4,0.4-0.7,0.7-0.7l1.8,0l0-1.6c0-1.9,0.5-3.3,1.5-4.3&#10;&#9;&#9;&#9;&#9;c0.8-0.8,2-1.3,3.4-1.3c0.8,0,1.4,0.1,2,0.2c0.4,0.1,0.6,0.4,0.6,0.7c0,0.5-0.4,0.8-0.9,0.7c-0.5-0.1-1.1-0.2-1.7-0.2&#10;&#9;&#9;&#9;&#9;c-2.3,0-3.3,1.3-3.3,4.1l0,1.6l5.1,0c0.4,0,0.7,0.3,0.7,0.7c0,0.4-0.4,0.7-0.7,0.7l-5.1,0l-0.1,14.3c0,0.5-0.3,0.8-0.8,0.8&#10;&#9;&#9;&#9;&#9;c-0.5,0-0.8-0.4-0.8-0.8L611.9,497z" style="fill: rgb(255, 255, 255);"/>
      <path d="M649.7,504.1L649.7,504.1c0-4.7,3.6-8.6,8.5-8.6c4.9,0,8.4,4,8.3,8.6l0,0.1c0,4.6-3.6,8.6-8.5,8.5&#10;&#9;&#9;&#9;&#9;C653.2,512.6,649.7,508.7,649.7,504.1z M664.9,504.1L664.9,504.1c0-4-2.9-7.2-6.7-7.2c-3.9,0-6.7,3.1-6.7,7l0,0.1&#10;&#9;&#9;&#9;&#9;c0,4,2.9,7.1,6.7,7.1C662,511.2,664.9,508,664.9,504.1z" style="fill: rgb(255, 255, 255);"/>
      <path d="M700.1,496.7c0-0.5,0.3-0.8,0.8-0.8s0.8,0.3,0.8,0.8l0,2.4c1.1-1.9,2.9-3.4,5.9-3.4c4.1,0,6.5,2.9,6.5,6.8l-0.1,9.4&#10;&#9;&#9;&#9;&#9;c0,0.5-0.3,0.8-0.8,0.8c-0.5,0-0.8-0.3-0.8-0.8l0-9.1c0-3.4-1.9-5.6-5.2-5.6c-3.2,0-5.7,2.4-5.7,5.8l0,8.8c0,0.5-0.3,0.8-0.8,0.8&#10;&#9;&#9;&#9;&#9;s-0.8-0.3-0.8-0.8L700.1,496.7z" style="fill: rgb(255, 255, 255);"/>
      <path d="M763.6,512.1c0,0.5-0.3,0.8-0.8,0.8s-0.8-0.3-0.8-0.8l0-3c-1.4,2.1-3.5,4-6.8,4c-4,0-8-3.2-7.9-8.6l0-0.1&#10;&#9;&#9;&#9;&#9;c0-5.3,4.1-8.6,8-8.5c3.3,0,5.4,1.9,6.7,4l0.1-9.9c0-0.5,0.3-0.8,0.8-0.8c0.5,0,0.8,0.3,0.8,0.8L763.6,512.1z M749,504.5&#10;&#9;&#9;&#9;&#9;L749,504.5c0,4.4,3,7.2,6.4,7.2c3.4,0,6.7-2.8,6.7-7l0-0.1c0-4.2-3.2-7.1-6.7-7.1C751.9,497.5,749.1,500.1,749,504.5z" style="fill: rgb(255, 255, 255);"/>
    </g>
  </g>
</svg>